<svg width="21" height="22" viewBox="0 0 21 22" fill="none" xmlns="http://www.w3.org/2000/svg">
<g id="Clip path group">
<mask id="mask0_48_19" style="mask-type:luminance" maskUnits="userSpaceOnUse" x="0" y="0" width="21" height="22">
<g id="clip0_1_534">
<path id="Vector" d="M21 0.5H0V21.5H21V0.5Z" fill="white"/>
</g>
</mask>
<g mask="url(#mask0_48_19)">
<g id="Group">
<path id="Vector_2" d="M11.1912 18.8749L2.625 10.3086V12.0586C2.625 12.5224 2.80875 12.9686 3.14125 13.2924L9.9575 20.1086C10.64 20.7911 11.7513 20.7911 12.4338 20.1086L17.8675 14.6749C18.55 13.9924 18.55 12.8811 17.8675 12.1986L11.1912 18.8749Z" fill="black"/>
<path id="Vector_3" d="M9.9575 15.7337C10.64 16.4162 11.7513 16.4162 12.4338 15.7337L17.8675 10.3C18.55 9.6175 18.55 8.5063 17.8675 7.8238L11.0513 1.0075C10.7189 0.68314 10.2732 0.50109 9.80875 0.5H4.375C3.4125 0.5 2.625 1.2875 2.625 2.25V7.6838C2.625 8.1475 2.80875 8.5938 3.14125 8.9175L9.9575 15.7337ZM6.34375 3.125C6.63383 3.125 6.91203 3.24023 7.11715 3.44535C7.32227 3.65047 7.4375 3.92867 7.4375 4.21875C7.4375 4.5088 7.32227 4.787 7.11715 4.9921C6.91203 5.1973 6.63383 5.3125 6.34375 5.3125C6.05367 5.3125 5.77547 5.1973 5.57035 4.9921C5.36523 4.787 5.25 4.5088 5.25 4.21875C5.25 3.92867 5.36523 3.65047 5.57035 3.44535C5.77547 3.24023 6.05367 3.125 6.34375 3.125Z" fill="black"/>
</g>
</g>
</g>
</svg>
