<svg width="76" height="22" viewBox="0 0 76 22" fill="none" xmlns="http://www.w3.org/2000/svg">
<path id="Vector" d="M8.38487 17.7153C6.75287 17.7153 5.32088 17.3633 4.08888 16.6593C2.87288 15.9553 1.93688 14.9473 1.28088 13.6353C0.624876 12.3233 0.296875 10.7873 0.296875 9.02728C0.296875 7.26728 0.624876 5.73928 1.28088 4.44328C1.93688 3.13128 2.87288 2.12328 4.08888 1.41928C5.32088 0.715281 6.75287 0.363281 8.38487 0.363281C9.44087 0.363281 10.4329 0.523281 11.3609 0.843281C12.2889 1.14728 13.1129 1.59528 13.8329 2.18728C14.0409 2.34728 14.1849 2.51528 14.2649 2.69128C14.3449 2.86728 14.3849 3.08328 14.3849 3.33928C14.3849 3.69128 14.2889 3.98728 14.0969 4.22728C13.9049 4.46728 13.6729 4.58728 13.4009 4.58728C13.0809 4.58728 12.7529 4.47528 12.4169 4.25128C11.7289 3.73928 11.0889 3.38728 10.4969 3.19528C9.90487 2.98728 9.24888 2.88328 8.52888 2.88328C6.86488 2.88328 5.60088 3.40328 4.73688 4.44328C3.88888 5.48328 3.46488 7.01128 3.46488 9.02728C3.46488 11.0593 3.88888 12.5953 4.73688 13.6353C5.60088 14.6753 6.86488 15.1953 8.52888 15.1953C9.21688 15.1953 9.84888 15.0913 10.4249 14.8833C11.0169 14.6753 11.6809 14.3233 12.4169 13.8273C12.5769 13.7313 12.7369 13.6513 12.8969 13.5873C13.0569 13.5233 13.2249 13.4913 13.4009 13.4913C13.6729 13.4913 13.9049 13.6113 14.0969 13.8513C14.2889 14.0913 14.3849 14.3873 14.3849 14.7393C14.3849 14.9793 14.3449 15.1953 14.2649 15.3873C14.1849 15.5633 14.0409 15.7313 13.8329 15.8913C13.1129 16.4833 12.2889 16.9393 11.3609 17.2593C10.4329 17.5633 9.44087 17.7153 8.38487 17.7153ZM21.9442 17.6913C20.7442 17.6913 19.6882 17.4433 18.7762 16.9473C17.8802 16.4513 17.1842 15.7393 16.6882 14.8113C16.1922 13.8833 15.9442 12.8033 15.9442 11.5713C15.9442 10.3393 16.1922 9.26728 16.6882 8.35528C17.1842 7.42728 17.8802 6.71528 18.7762 6.21928C19.6882 5.72328 20.7442 5.47528 21.9442 5.47528C23.1442 5.47528 24.1922 5.72328 25.0882 6.21928C26.0002 6.71528 26.6962 7.42728 27.1762 8.35528C27.6722 9.26728 27.9202 10.3393 27.9202 11.5713C27.9202 12.8033 27.6722 13.8833 27.1762 14.8113C26.6962 15.7393 26.0002 16.4513 25.0882 16.9473C24.1922 17.4433 23.1442 17.6913 21.9442 17.6913ZM21.9202 15.3633C22.8962 15.3633 23.6402 15.0433 24.1522 14.4033C24.6642 13.7633 24.9202 12.8193 24.9202 11.5713C24.9202 10.3393 24.6642 9.40328 24.1522 8.76328C23.6402 8.10728 22.9042 7.77928 21.9442 7.77928C20.9842 7.77928 20.2402 8.10728 19.7122 8.76328C19.2002 9.40328 18.9442 10.3393 18.9442 11.5713C18.9442 12.8193 19.2002 13.7633 19.7122 14.4033C20.2242 15.0433 20.9602 15.3633 21.9202 15.3633ZM39.6608 5.52328C40.1248 5.52328 40.4928 5.65128 40.7648 5.90728C41.0368 6.16328 41.1728 6.50728 41.1728 6.93928V16.2513C41.1728 16.6673 41.0288 17.0033 40.7408 17.2593C40.4688 17.5153 40.1088 17.6433 39.6608 17.6433C39.2288 17.6433 38.8848 17.5233 38.6288 17.2833C38.3728 17.0433 38.2448 16.7153 38.2448 16.2993V15.6993C37.8768 16.3393 37.3808 16.8353 36.7568 17.1873C36.1328 17.5233 35.4288 17.6913 34.6448 17.6913C31.7648 17.6913 30.3248 16.0753 30.3248 12.8433V6.93928C30.3248 6.50728 30.4608 6.16328 30.7328 5.90728C31.0048 5.65128 31.3648 5.52328 31.8128 5.52328C32.2768 5.52328 32.6448 5.65128 32.9168 5.90728C33.1888 6.16328 33.3248 6.50728 33.3248 6.93928V12.8673C33.3248 13.6993 33.4928 14.3153 33.8288 14.7153C34.1648 15.1153 34.6928 15.3153 35.4128 15.3153C36.2448 15.3153 36.9088 15.0433 37.4048 14.4993C37.9168 13.9393 38.1728 13.2033 38.1728 12.2913V6.93928C38.1728 6.50728 38.3088 6.16328 38.5808 5.90728C38.8528 5.65128 39.2128 5.52328 39.6608 5.52328ZM51.0393 5.47528C52.0473 5.47528 52.9433 5.73128 53.7273 6.24328C54.5273 6.75528 55.1433 7.48328 55.5753 8.42728C56.0233 9.35528 56.2473 10.4273 56.2473 11.6433C56.2473 12.8593 56.0233 13.9233 55.5753 14.8353C55.1433 15.7473 54.5353 16.4513 53.7513 16.9473C52.9673 17.4433 52.0633 17.6913 51.0393 17.6913C50.2073 17.6913 49.4633 17.5153 48.8073 17.1633C48.1513 16.8113 47.6473 16.3233 47.2953 15.6993V20.5953C47.2953 21.0113 47.1593 21.3393 46.8873 21.5793C46.6153 21.8193 46.2553 21.9393 45.8073 21.9393C45.3593 21.9393 44.9913 21.8113 44.7033 21.5553C44.4313 21.2993 44.2953 20.9633 44.2953 20.5473V6.93928C44.2953 6.50728 44.4233 6.16328 44.6793 5.90728C44.9513 5.65128 45.3113 5.52328 45.7593 5.52328C46.2073 5.52328 46.5673 5.65128 46.8393 5.90728C47.1113 6.16328 47.2473 6.50728 47.2473 6.93928V7.53928C47.5993 6.88328 48.1033 6.37928 48.7593 6.02728C49.4313 5.65928 50.1913 5.47528 51.0393 5.47528ZM50.2473 15.3633C51.1913 15.3633 51.9273 15.0433 52.4553 14.4033C52.9833 13.7473 53.2473 12.8273 53.2473 11.6433C53.2473 10.4273 52.9833 9.48328 52.4553 8.81128C51.9273 8.13928 51.1913 7.80328 50.2473 7.80328C49.2873 7.80328 48.5433 8.13128 48.0153 8.78728C47.5033 9.44328 47.2473 10.3793 47.2473 11.5953C47.2473 12.7953 47.5033 13.7233 48.0153 14.3793C48.5433 15.0353 49.2873 15.3633 50.2473 15.3633ZM60.1973 17.6433C59.7653 17.6433 59.4053 17.5233 59.1173 17.2833C58.8453 17.0273 58.7093 16.6673 58.7093 16.2033V1.87528C58.7093 1.41128 58.8453 1.05928 59.1173 0.819282C59.4053 0.579282 59.7653 0.459281 60.1973 0.459281C60.6293 0.459281 60.9893 0.579282 61.2773 0.819282C61.5653 1.05928 61.7093 1.41128 61.7093 1.87528V16.2033C61.7093 16.6673 61.5653 17.0273 61.2773 17.2833C60.9893 17.5233 60.6293 17.6433 60.1973 17.6433ZM72.9869 6.38728C73.1149 6.09928 73.2829 5.89128 73.4909 5.76328C73.7149 5.61928 73.9549 5.54728 74.2109 5.54728C74.5789 5.54728 74.9069 5.67528 75.1949 5.93128C75.4989 6.17128 75.6509 6.47528 75.6509 6.84328C75.6509 7.01928 75.6029 7.20328 75.5069 7.39528L68.9551 21.1233C68.6831 21.6673 68.2591 21.9393 67.6831 21.9393C67.3151 21.9393 66.9871 21.8193 66.6991 21.5793C66.4271 21.3553 66.2911 21.0673 66.2911 20.7153C66.2911 20.5393 66.3391 20.3393 66.4351 20.1153L68.0671 16.6833L63.6031 7.39528C63.5231 7.23528 63.4831 7.05128 63.4831 6.84328C63.4831 6.47528 63.6351 6.16328 63.9391 5.90728C64.2591 5.65128 64.6191 5.52328 65.0191 5.52328C65.2911 5.52328 65.5391 5.59528 65.7631 5.73928C65.9871 5.86728 66.1631 6.07528 66.2911 6.36328L69.6511 13.7793L72.9869 6.38728Z" fill="black"/>
</svg>
