<svg xmlns="http://www.w3.org/2000/svg" width="151" height="45" viewBox="0 0 151 45" fill="none">
  <path fill-rule="evenodd" clip-rule="evenodd" d="M93.6791 35.1918C84.9042 41.5879 72.1856 45.0004 61.2351 45.0004C45.8807 45.0004 32.0578 39.3844 21.6003 30.0438C20.7787 29.3093 21.5148 28.3083 22.5008 28.8803C33.7865 35.3738 47.7408 39.2804 62.1553 39.2804C71.8766 39.2804 82.5708 37.2913 92.4039 33.1638C93.8894 32.5398 95.1317 34.1258 93.6791 35.1918Z" fill="white"/>
  <path fill-rule="evenodd" clip-rule="evenodd" d="M97.3252 31.0626C96.2078 29.6456 89.911 30.3931 87.0846 30.7246C86.2235 30.8286 86.0921 30.0876 86.8677 29.5545C91.8828 26.064 100.112 27.0715 101.072 28.2415C102.031 29.418 100.822 37.5756 96.1092 41.4692C95.3862 42.0672 94.6961 41.7487 95.0181 40.9557C96.0764 38.3426 98.4492 32.4861 97.3252 31.0626Z" fill="white"/>
  <path fill-rule="evenodd" clip-rule="evenodd" d="M87.2804 4.9151V1.52207C87.2804 1.00857 87.6748 0.664062 88.1481 0.664062H103.509C104.002 0.664062 104.396 1.01507 104.396 1.52207V4.4276C104.39 4.91511 103.976 5.55211 103.24 6.55962L95.2797 17.7982C98.2375 17.7267 101.36 18.1622 104.041 19.6573C104.646 19.9953 104.81 20.4893 104.856 20.9768V24.5973C104.856 25.0913 104.304 25.6698 103.726 25.3708C99 22.9203 92.7228 22.6538 87.4974 25.3968C86.9649 25.6828 86.4062 25.1108 86.4062 24.6168V21.1783C86.4062 20.6258 86.4128 19.6833 86.9715 18.8448L96.1933 5.76661H88.1678C87.6748 5.76661 87.2804 5.42211 87.2804 4.9151Z" fill="white"/>
  <path fill-rule="evenodd" clip-rule="evenodd" d="M31.2464 26.0838H26.573C26.1261 26.0513 25.7711 25.7198 25.7383 25.2973V1.57858C25.7383 1.10408 26.1392 0.727069 26.6388 0.727069H30.9966C31.4502 0.746556 31.8117 1.09107 31.8445 1.52008V4.62061H31.93C33.0671 1.62408 35.2033 0.226562 38.0823 0.226562C41.0072 0.226562 42.8345 1.62408 44.1491 4.62061C45.2796 1.62408 47.8496 0.226562 50.6037 0.226562C52.5624 0.226562 54.7052 1.02607 56.0132 2.82009C57.4921 4.81561 57.1898 7.71464 57.1898 10.2562L57.1832 25.2258C57.1832 25.7003 56.7823 26.0838 56.2827 26.0838H51.6159C51.1492 26.0513 50.7746 25.6808 50.7746 25.2258V12.6547C50.7746 11.6537 50.8666 9.15766 50.6431 8.20864C50.2948 6.61613 49.2497 6.16762 47.8956 6.16762C46.7651 6.16762 45.582 6.91513 45.1021 8.11115C44.6223 9.30716 44.6683 11.3092 44.6683 12.6547V25.2258C44.6683 25.7003 44.2674 26.0838 43.7678 26.0838H39.1011C38.6278 26.0513 38.2597 25.6808 38.2597 25.2258L38.2532 12.6547C38.2532 10.0092 38.6935 6.11562 35.3742 6.11562C32.0154 6.11562 32.1469 9.91166 32.1469 12.6547V25.2258C32.1469 25.7003 31.7459 26.0838 31.2464 26.0838Z" fill="white"/>
  <path fill-rule="evenodd" clip-rule="evenodd" d="M117.622 0.226562C124.557 0.226562 128.31 6.11562 128.31 13.6037C128.31 20.8383 124.162 26.5778 117.622 26.5778C110.813 26.5778 107.105 20.6888 107.105 13.3502C107.105 5.96612 110.859 0.226562 117.622 0.226562ZM117.662 5.06912C114.217 5.06912 114 9.71016 114 12.6027C114 15.5017 113.954 21.6898 117.622 21.6898C121.244 21.6898 121.415 16.6977 121.415 13.6557C121.415 11.6537 121.329 9.26166 120.718 7.36364C120.192 5.71262 119.147 5.06912 117.662 5.06912Z" fill="white"/>
  <path fill-rule="evenodd" clip-rule="evenodd" d="M137.302 26.0838H132.649C132.182 26.0513 131.807 25.6808 131.807 25.2258L131.801 1.50058C131.84 1.06507 132.228 0.727069 132.701 0.727069H137.033C137.44 0.746556 137.776 1.01957 137.868 1.39008V5.01711H137.953C139.261 1.77358 141.095 0.226562 144.322 0.226562C146.419 0.226562 148.463 0.974072 149.778 3.02159C151 4.91961 151 8.11115 151 10.4057V25.3363C150.948 25.7523 150.56 26.0838 150.1 26.0838H145.413C144.986 26.0513 144.631 25.7393 144.585 25.3363V12.4532C144.585 9.85966 144.887 6.06362 141.66 6.06362C140.523 6.06362 139.478 6.81763 138.959 7.96164C138.301 9.41116 138.216 10.8542 138.216 12.4532V25.2258C138.209 25.7003 137.802 26.0838 137.302 26.0838Z" fill="white"/>
  <path fill-rule="evenodd" clip-rule="evenodd" d="M75.0359 14.7552C75.0359 16.5557 75.0819 18.0572 74.1617 19.6562C73.419 20.9562 72.2359 21.7557 70.9278 21.7557C69.1334 21.7557 68.0818 20.4037 68.0818 18.4082C68.0818 14.4691 71.6509 13.7541 75.0359 13.7541V14.7552ZM79.7487 26.0198C79.4398 26.2928 78.9928 26.3123 78.6445 26.1303C77.0932 24.8563 76.8106 24.2648 75.9627 23.0492C73.3993 25.6363 71.5786 26.4098 68.2592 26.4098C64.322 26.4098 61.2656 24.0112 61.2656 19.2077C61.2656 15.4572 63.3164 12.9026 66.2479 11.6546C68.7851 10.5496 72.3279 10.3546 75.0359 10.0491V9.4511C75.0359 8.35258 75.1214 7.05257 74.4641 6.10357C73.8988 5.25205 72.8077 4.90105 71.8415 4.90105C70.0602 4.90105 68.4761 5.80456 68.0883 7.67658C68.0095 8.09259 67.7005 8.50209 67.2733 8.52159L62.7445 8.04058C62.3633 7.95609 61.9361 7.65058 62.0478 7.07208C63.0863 1.63802 68.0555 0 72.4988 0C74.773 0 77.744 0.598007 79.5384 2.30102C81.8126 4.40054 81.5957 7.20207 81.5957 10.2506V17.4527C81.5957 19.6172 82.5028 20.5662 83.3573 21.7362C83.653 22.1522 83.7188 22.6527 83.3375 22.9647C82.3844 23.7512 80.6886 25.2138 79.7553 26.0328L79.7487 26.0198Z" fill="white"/>
  <path fill-rule="evenodd" clip-rule="evenodd" d="M13.7703 14.7552C13.7703 16.5557 13.8163 18.0572 12.8961 19.6562C12.1533 20.9562 10.9768 21.7557 9.66221 21.7557C7.8678 21.7557 6.8227 20.4037 6.8227 18.4082C6.8227 14.4692 10.3918 13.7541 13.7703 13.7541V14.7552ZM18.4831 26.0198C18.1742 26.2928 17.7272 26.3123 17.3788 26.1303C15.8276 24.8563 15.5516 24.2648 14.6971 23.0492C12.1336 25.6363 10.3195 26.4098 6.9936 26.4098C3.06298 26.4098 0 24.0112 0 19.2077C0 15.4572 2.05733 12.9026 4.98228 11.6546C7.51943 10.5496 11.0622 10.3546 13.7703 10.0491V9.4511C13.7703 8.35259 13.8557 7.05257 13.205 6.10357C12.6332 5.25205 11.5421 4.90105 10.5824 4.90105C8.80116 4.90105 7.21051 5.80456 6.8227 7.67658C6.74383 8.09259 6.4349 8.50209 6.01423 8.52159L1.47891 8.04058C1.09768 7.95609 0.677011 7.65058 0.782178 7.07208C1.82727 1.63802 6.78984 0 11.2331 0C13.5074 0 16.4783 0.598007 18.2728 2.30102C20.547 4.40055 20.3301 7.20207 20.3301 10.2506V17.4527C20.3301 19.6172 21.2371 20.5662 22.0916 21.7362C22.394 22.1522 22.4597 22.6527 22.0785 22.9647C21.1254 23.7512 19.4296 25.2138 18.4962 26.0328L18.4831 26.0198Z" fill="white"/>
</svg>
