<svg xmlns="http://www.w3.org/2000/svg" width="78" height="45" viewBox="0 0 78 45" fill="none">
  <path d="M62.4591 32.6602H78.0039V44.9986H62.3671L58.5039 41.3697V36.2891L62.4591 32.6602Z" fill="white"/>
  <path d="M13.9811 9.70609L14.2571 9.61537C14.441 9.52464 14.717 9.34319 14.9929 9.16175C15.2689 8.9803 15.5448 8.70813 15.8208 8.43596C16.0967 8.16378 16.2807 7.80089 16.5566 7.25654C16.7406 6.80292 16.8325 6.25858 16.8325 5.71424C16.8325 4.35338 16.1887 3.08324 14.9009 2.08528C13.6132 1.08731 11.8656 0.542969 9.65802 0.542969H0V19.9579H10.2099C12.7854 19.9579 18.2123 19.5043 18.2123 14.4237C18.2123 10.5226 14.0731 9.70609 13.9811 9.70609ZM6.3467 5.07917H8.73821C9.19811 5.07917 9.56604 5.16989 9.93396 5.53279C10.2099 5.80496 10.3939 6.16786 10.3939 6.53075C10.3939 6.89365 10.2099 7.25654 9.93396 7.52872C9.56604 7.80089 9.19811 7.98234 8.73821 7.98234H6.3467V5.07917ZM10.7618 14.9681C10.3939 15.331 9.93396 15.5124 9.38208 15.5124H6.3467V12.0649H9.38208C9.93396 12.0649 10.3939 12.2464 10.7618 12.6093C11.1297 12.9722 11.3137 13.3351 11.3137 13.8794C11.3137 14.2423 11.1297 14.6052 10.7618 14.9681Z" fill="white"/>
  <path d="M19.0397 31.21L19.3157 31.1193C19.4996 31.0285 19.7756 30.8471 20.0515 30.6657C20.3275 30.4842 20.6034 30.212 20.8793 29.9399C21.1553 29.6677 21.3393 29.3048 21.6152 28.7605C21.7992 28.3068 21.8911 27.7625 21.8911 27.2181C21.8911 25.8573 21.2473 24.5871 19.9595 23.5892C18.6718 22.5912 16.9242 22.0469 14.7166 22.0469H5.05859V41.4618H15.1765C17.752 41.4618 23.1789 41.0082 23.1789 35.9276C23.2709 32.0265 19.1317 31.3007 19.0397 31.21ZM11.4973 26.5831H13.7968C14.2567 26.5831 14.6246 26.7645 14.9926 27.0367C15.2685 27.3089 15.4525 27.6718 15.4525 28.0347C15.4525 28.3976 15.2685 28.7605 14.9926 29.0326C14.7166 29.3048 14.3487 29.4862 13.7968 29.4862H11.4973V26.5831ZM15.8204 36.472C15.4525 36.8349 14.9926 37.0163 14.4407 37.0163H11.4973V33.5688H14.4407C14.9926 33.5688 15.4525 33.7503 15.8204 34.1132C16.1883 34.4761 16.3723 34.839 16.3723 35.3833C16.3723 35.7462 16.1883 36.1091 15.8204 36.472Z" fill="white"/>
  <path d="M34.4948 15.2403H25.0207V12.2464H32.7471V7.80089H25.0207V5.26062H34.4948V0.542969H18.582V19.9579H34.4948V15.2403Z" fill="white"/>
  <path d="M50.7734 0.542969V5.26062H56.0164V19.9579H62.3631V5.26062H67.514V0.542969H50.7734Z" fill="white"/>
  <path d="M43.598 14.9695C43.23 15.2416 42.7701 15.4231 42.1263 15.4231C41.4824 15.4231 40.8385 15.2416 40.1946 14.8787C39.5508 14.5158 39.0909 14.2437 38.8149 14.0622C38.723 13.9715 38.539 13.8808 38.447 13.79L34.6758 17.3283L34.9517 17.6005C35.1357 17.8726 35.5036 18.1448 35.9635 18.417C36.4234 18.7799 36.9753 19.052 37.6192 19.4149C38.263 19.7778 38.9989 20.05 40.0107 20.2314C40.9305 20.5036 41.9423 20.5943 42.9541 20.5943C45.4376 20.5943 47.4612 19.9593 48.9329 18.6891C50.4046 17.419 51.1404 15.8767 51.1404 14.0622C51.1404 13.0643 50.9564 12.0663 50.4965 11.3405C50.0366 10.524 49.5767 9.97964 48.9329 9.52602C48.289 9.16312 47.6451 8.80023 46.9093 8.43733C46.2654 8.16516 45.6215 7.89299 44.9777 7.80226C44.8857 7.80226 44.8857 7.80226 44.7937 7.80226C44.1498 7.62082 43.5979 7.43937 43.23 7.1672C42.7701 6.89502 42.5862 6.71358 42.5862 6.35068C42.5862 5.98778 42.7701 5.71561 43.0461 5.44344C43.322 5.17127 43.7819 5.08054 44.3338 5.08054C45.6215 5.08054 46.4494 5.62489 46.8173 6.07851L50.5885 2.54027L50.4965 2.44955C50.3126 2.2681 50.0366 1.99593 49.6687 1.72376C49.3008 1.45158 48.8409 1.17941 48.289 0.90724C47.7371 0.635068 47.0932 0.362896 46.1734 0.181448C45.2536 0.090724 44.3338 0 43.414 0C41.0225 0 39.1829 0.635068 37.7112 1.81448C36.2395 3.08462 35.5036 4.5362 35.5036 6.16923C35.5036 7.07647 35.6876 7.89299 35.9635 8.52806C36.2395 9.25385 36.6994 9.79819 37.1593 10.2518C37.6192 10.7054 38.1711 11.0683 38.8149 11.3405C39.3668 11.6127 39.8267 11.7941 40.3786 11.9756C40.4706 11.9756 40.5626 12.0663 40.6546 12.0663C41.2984 12.2477 41.8503 12.4292 42.3102 12.6106C42.7701 12.7921 43.23 12.9735 43.506 13.155C43.7819 13.3364 43.9659 13.6086 43.9659 13.79C44.1498 14.3344 43.9659 14.6973 43.598 14.9695Z" fill="white"/>
  <path d="M34.493 33.5688C34.493 34.839 33.4812 35.9276 32.1015 35.9276C30.8138 35.9276 29.71 34.9297 29.71 33.5688V22.0469H23.3633V33.2967C23.3633 37.9236 27.1345 41.734 31.9175 41.734H32.2855C36.9765 41.734 40.8397 38.0143 40.8397 33.2967V22.0469H34.493V33.5688Z" fill="white"/>
  <path d="M51.6929 28.6697L47.5537 22.0469H41.207L48.5655 34.5668V41.4618H54.9122V34.5668L62.2707 22.0469H55.924L51.6929 28.6697Z" fill="white"/>
  <path d="M61.6279 38.8274C61.6279 39.281 61.26 39.5531 60.8921 39.5531C60.5242 39.5531 60.1562 39.1902 60.1562 38.8274C60.1562 38.3737 60.5242 38.1016 60.8921 38.1016C61.26 38.1016 61.6279 38.3737 61.6279 38.8274Z" fill="white"/>
  <path d="M62.456 27.6736H61.9961V27.4922H63.0999V27.6736H62.64V29.0345H62.456V27.6736ZM63.3758 27.4922H63.6517L64.1117 28.6716L64.5716 27.4922H64.8475V28.9438H64.6635V27.6736L64.1117 28.9438H64.0197L63.4678 27.6736V28.9438H63.2838V27.4922H63.3758Z" fill="white"/>
</svg>
