<svg xmlns="http://www.w3.org/2000/svg" width="159" height="45" viewBox="0 0 159 45" fill="none">
  <path d="M34.1583 8.47249C34.1276 8.25029 33.9327 8.12702 33.7708 8.1136C33.6103 8.10018 30.4642 8.05259 30.4642 8.05259C30.4642 8.05259 27.833 5.50862 27.573 5.24982C27.3132 4.99104 26.8055 5.06916 26.6081 5.12775C26.6057 5.12898 26.1141 5.28034 25.2865 5.53547C25.1479 5.0887 24.9443 4.53937 24.6538 3.98761C23.7171 2.20782 22.3451 1.26665 20.6874 1.26422C20.685 1.26422 20.6838 1.26422 20.6813 1.26422C20.5661 1.26422 20.452 1.2752 20.3368 1.28496C20.2878 1.22637 20.2387 1.169 20.1872 1.11284C19.4651 0.343798 18.5394 -0.0309599 17.4298 0.00199915C15.2891 0.0630346 13.157 1.60235 11.4282 4.33674C10.2119 6.26057 9.28625 8.67761 9.02389 10.5489C6.5656 11.307 4.84665 11.8367 4.80864 11.849C3.56786 12.2371 3.52863 12.275 3.36679 13.4396C3.24663 14.3197 0 39.315 0 39.315L27.2077 44L39 41.0813C39 41.0813 34.1889 8.69469 34.1583 8.47249ZM23.9243 5.95539C23.2978 6.14827 22.5854 6.368 21.813 6.60604C21.7971 5.52693 21.6683 4.02546 21.1632 2.72784C22.7877 3.03424 23.5871 4.86408 23.9243 5.95539ZM20.3895 7.04549C18.9636 7.48491 17.4077 7.96466 15.847 8.44565C16.2859 6.77205 17.1184 5.10578 18.1409 4.01325C18.521 3.60675 19.0531 3.15387 19.6833 2.89508C20.2755 4.12555 20.4042 5.8675 20.3895 7.04549ZM17.4727 1.42046C17.9754 1.40947 18.3984 1.51934 18.7601 1.75616C18.1814 2.05523 17.6223 2.48492 17.0975 3.04523C15.7378 4.49787 14.6956 6.75252 14.28 8.92782C12.984 9.32697 11.7163 9.71887 10.5491 10.0778C11.286 6.65364 14.1684 1.51568 17.4727 1.42046Z" fill="white"/>
  <path d="M30.3138 7.97649L29.969 8.33858L30.1107 8.47352L30.3063 8.47643L30.3138 7.97649ZM30.3138 7.97649L29.969 8.33855L29.9689 8.33847L29.9685 8.33812L29.967 8.33673L29.9613 8.33125L29.9388 8.30987L29.8534 8.22849L29.5464 7.93608C29.2912 7.69298 28.9482 7.36613 28.597 7.03116C28.2063 6.65865 27.8034 6.27421 27.5 5.98404L27.5013 43.3635L38.4374 40.6986L38.2952 39.7557L37.7401 36.076L36.0538 24.8948C34.8835 17.1348 33.7085 9.34172 33.5879 8.53414C33.5586 8.5332 33.5206 8.53214 33.4746 8.53099C33.3728 8.52843 33.2354 8.52548 33.0741 8.52231C32.7518 8.51596 32.3369 8.50875 31.9267 8.50195C31.5165 8.49515 31.1114 8.48877 30.8088 8.48409L30.4441 8.47851L30.3423 8.47697L30.3155 8.47657L30.3086 8.47647L30.3069 8.47644L30.3065 8.47643L30.3064 8.47643L30.3138 7.97649Z" fill="white" stroke="black"/>
  <path d="M21 14.4684L19.5718 19.6395C19.5718 19.6395 17.9786 18.9379 16.09 19.053C13.3204 19.2226 13.291 20.9128 13.3192 21.3373C13.47 23.65 19.7571 24.1549 20.1101 29.5722C20.3876 33.8339 17.7739 36.7492 14.0083 36.9793C9.48826 37.2553 7 34.6753 7 34.6753L7.95773 30.7329C7.95773 30.7329 10.4626 32.5618 12.4675 32.4393C13.7769 32.3589 14.2449 31.3281 14.1975 30.5993C14.0007 27.5825 8.88089 27.7606 8.55742 22.8036C8.28504 18.6323 11.116 14.4053 17.3622 14.0242C19.7687 13.8745 21 14.4684 21 14.4684Z" fill="black"/>
  <path d="M55.2344 25.0725C53.9412 24.3246 53.2766 23.6943 53.2766 22.8278C53.2766 21.7253 54.1998 21.017 55.6415 21.017C57.3197 21.017 58.8182 21.7648 58.8182 21.7648L60 17.906C60 17.906 58.9133 17 55.7145 17C51.2632 17 48.1781 19.7167 48.1781 23.536C48.1781 25.7015 49.6186 27.3553 51.5404 28.5357C53.0922 29.48 53.6466 30.15 53.6466 31.1338C53.6466 32.1573 52.8707 32.9842 51.4302 32.9842C49.2834 32.9842 47.256 31.8025 47.256 31.8025L46 35.6614C46 35.6614 47.8731 37 51.0243 37C55.6055 37 58.8936 34.5984 58.8936 30.2674C58.8924 27.9462 57.2304 26.2924 55.2344 25.0725Z" fill="white"/>
  <path d="M74.5258 17.1418C72.1113 17.1418 70.2114 18.2939 68.7477 20.0407L68.6681 20.0007L70.7656 9H65.3033L60 36.9987H65.4623L67.2827 27.4281C67.9947 23.8136 69.8548 21.5905 71.5969 21.5905C72.8233 21.5905 73.2992 22.4246 73.2992 23.6165C73.2992 24.3709 73.2197 25.2848 73.0618 26.0392L71.0041 37H76.4667L78.6034 25.6813C78.8412 24.4893 79 23.0605 79 22.1066C78.9977 19.0083 77.3751 17.1418 74.5258 17.1418Z" fill="white"/>
  <path d="M90.7295 17C84.2751 17 80 22.8828 80 29.4317C80 33.6277 82.5652 37 87.3866 37C93.7234 37 98 31.2748 98 24.5683C98 20.6863 95.7445 17 90.7295 17ZM88.0859 32.8446C86.2585 32.8446 85.4808 31.276 85.4808 29.3147C85.4808 26.2169 87.0754 21.1579 89.991 21.1579C91.896 21.1579 92.517 22.8052 92.517 24.4132C92.517 27.7461 90.9246 32.8446 88.0859 32.8446Z" fill="white"/>
  <path d="M111.621 17C108.092 17 106.09 20.1812 106.09 20.1812H106.015L106.318 17.3106H101.697C101.47 19.2507 101.052 22.1981 100.637 24.4098L97 44H102.228L103.666 36.086H103.781C103.781 36.086 104.853 36.7839 106.849 36.7839C112.985 36.7839 117 30.3448 117 23.8265C117 20.2202 115.446 17 111.621 17ZM106.621 32.7501C105.264 32.7501 104.461 31.9743 104.461 31.9743L105.332 26.9699C105.939 23.634 107.643 21.4223 109.462 21.4223C111.053 21.4223 111.545 22.9349 111.545 24.3709C111.545 27.8236 109.537 32.7501 106.621 32.7501Z" fill="white"/>
  <path d="M117 37H122.947L127 17H121.008L117 37Z" fill="white"/>
  <path d="M140.598 17.1259H136.876L137.07 16.1926C137.38 14.2864 138.466 12.5827 140.249 12.5827C141.2 12.5827 141.953 12.8666 141.953 12.8666L143 8.48642C143 8.48642 142.07 8 140.092 8C138.193 8 136.295 8.56786 134.86 9.86538C133.038 11.4877 132.185 13.8395 131.759 16.1926L131.605 17.1259H129.123L128.348 21.3445H130.83L128 37H133.35L136.179 21.3445H139.862L140.598 17.1259Z" fill="white"/>
  <path d="M153.494 17.0013C153.494 17.0013 150.194 25.5602 148.713 30.2323H148.636C148.536 28.7277 147.336 17.0013 147.336 17.0013H141.79L144.966 34.6817C145.043 35.0749 145.004 35.3123 144.851 35.5879C144.238 36.8082 143.206 37.9901 141.982 38.8568C140.988 39.6047 139.879 40.077 139 40.3923L140.453 45C141.524 44.7639 143.741 43.8577 145.615 42.0465C148.025 39.7234 150.242 36.1394 152.537 31.2559L159 17H153.494V17.0013Z" fill="white"/>
</svg>
