<svg xmlns="http://www.w3.org/2000/svg" width="170" height="45" viewBox="0 0 170 45" fill="none">
  <path fill-rule="evenodd" clip-rule="evenodd" d="M94.4207 28.6068C94.4207 28.9593 94.367 29.3705 94.3132 29.6642C93.8299 31.1915 92.5408 32.1901 91.037 32.1901C89.6943 32.1901 88.6738 31.3677 88.6738 29.6054C88.6738 26.9033 91.3592 26.1984 94.4744 26.1984V28.6068H94.4207ZM99.2545 23.9074C99.2545 19.5018 97.5358 15.5661 91.6815 15.5661C88.6738 15.5661 86.2569 16.5059 84.9678 17.3283L85.9346 20.9116C87.4385 19.9717 89.1035 19.443 90.8221 19.3843C93.8299 19.3843 94.3132 21.2053 94.3132 22.3801V22.6739C87.8144 22.6739 83.7325 25.141 83.7325 30.1341C83.7325 33.1887 85.8272 36.0671 89.4794 36.0671C91.6815 36.0671 93.5613 35.1272 94.6892 33.5412H94.7966C94.7966 33.5412 95.5485 36.9482 99.6304 35.6559C99.4156 34.2461 99.3082 32.7188 99.3082 30.9565L99.2545 23.9074ZM0 9.51562L4.94124 31.6027C5.74688 35.1859 7.14331 36.537 11.2252 35.6559L13.857 23.9074C14.5015 20.9703 14.9848 18.9144 15.4145 15.9185H15.4682C15.7905 18.9144 16.2202 20.9703 16.7572 23.9074L18.3685 32.0726C18.9593 34.8922 20.4632 36.6545 24.4914 35.6559L30.7753 9.57437H25.673L23.5246 20.8529C22.9338 24.1424 22.3967 26.7271 22.0207 29.7229C21.6448 26.7271 21.1614 24.2599 20.5706 21.0878L18.3685 9.57437H13.0513L10.6344 20.7941C9.9899 24.2012 9.34539 26.962 8.91572 29.8404H8.86201C8.43233 27.1383 7.89524 23.6725 7.30444 20.3829L5.37091 9.51562H0ZM40.1207 28.6068C40.1207 28.9593 40.1207 29.3705 40.0133 29.6642C39.5299 31.1915 38.2409 32.1901 36.737 32.1901C35.3943 32.1901 34.3738 31.3677 34.3738 29.6054C34.3738 26.9033 37.0593 26.1984 40.1744 26.1984V28.6068H40.1207ZM45.0083 23.9074C45.0083 19.5018 43.2896 15.5661 37.4353 15.5661C34.4276 15.5661 32.0106 16.5059 30.7216 17.3283L31.6884 20.9116C33.1922 19.9717 34.8572 19.443 36.5759 19.3843C39.5836 19.3843 40.067 21.2053 40.067 22.3801V22.6739C33.5682 22.6739 29.4863 25.141 29.4863 30.1341C29.4863 33.1887 31.581 36.0671 35.2332 36.0671C37.4353 36.0671 39.3151 35.1272 40.443 33.5412H40.5504C40.5504 33.5412 41.3023 36.9482 45.3842 35.6559C45.1694 34.2461 45.062 32.7188 45.062 30.9565L45.0083 23.9074ZM52.4738 30.0754V9.51562H47.64V35.5971H52.4738V30.0754ZM114.132 9.57437V28.783C114.132 31.4264 114.562 33.3062 115.582 34.4223C116.441 35.4209 117.838 36.0671 119.503 36.0671C120.953 36.0671 122.349 35.7734 122.994 35.4796L122.94 31.309C122.457 31.4852 121.866 31.5439 121.114 31.5439C119.449 31.5439 118.912 30.4278 118.912 28.0194V20.7354H123.155V15.7423H118.912V9.51562L114.132 9.57437ZM101.618 16.036V35.6559H106.613V25.611C106.613 25.0823 106.666 24.6123 106.72 24.1424C107.096 22.0277 108.546 20.6766 110.695 20.6766C111.285 20.6766 111.661 20.7354 112.145 20.7941V15.6248C111.769 15.5661 111.393 15.5073 111.07 15.5073C109.191 15.5073 107.096 16.7996 106.183 19.678H106.076V15.9773L101.618 16.036ZM55.3204 16.036V35.6559H60.1542V24.1424C60.1542 23.6137 60.2079 23.0263 60.3691 22.5564C60.745 21.3815 61.7655 20.0305 63.3231 20.0305C65.3103 20.0305 66.2234 21.8515 66.2234 24.4361V35.5971H71.1109V23.9662C71.1109 23.4375 71.1646 22.7913 71.3257 22.3801C71.7017 20.9703 72.937 19.9717 74.2797 19.9717C76.267 19.9717 77.2337 21.734 77.2337 24.8473V35.5971H82.1213V24.0837C82.1213 18.0332 79.2747 15.5661 76.1058 15.5661C74.6557 15.5661 73.5815 15.9773 72.561 16.6234C71.7017 17.2108 70.9498 18.0332 70.3053 19.0906H70.2515C69.4459 16.9171 67.4587 15.5073 65.3103 15.5661C63.1619 15.4486 61.121 16.6234 60.1005 18.6794H60.0468V16.036H55.3204Z" fill="white"/>
  <path fill-rule="evenodd" clip-rule="evenodd" d="M149.313 15.1555C150.279 15.1555 151.085 14.568 151.192 13.9219L152.106 2.11472C152.106 0.939874 150.87 0 149.313 0C147.755 0 146.52 0.939874 146.52 2.11472L147.487 13.9219C147.54 14.6268 148.346 15.1555 149.313 15.1555ZM143.458 18.8562C143.942 17.9163 143.888 16.9177 143.405 16.4478L134.543 9.69245C133.63 9.10503 132.233 9.80994 131.481 11.2785C130.676 12.747 130.837 14.4506 131.75 14.9792L141.579 19.9723C142.169 20.2073 143.029 19.7374 143.458 18.8562ZM155.113 18.7975C155.597 19.7374 156.402 20.2073 157.047 19.9136L166.822 14.9205C167.735 14.3331 167.896 12.6883 167.09 11.2197C166.285 9.75119 164.942 9.04629 164.029 9.63371L155.167 16.4478C154.684 16.9177 154.63 17.9163 155.113 18.7975ZM149.313 29.841C150.279 29.841 151.085 30.4284 151.192 31.0746L152.106 42.8818C152.106 44.0566 150.87 44.9965 149.313 44.9965C147.755 44.9965 146.52 44.0566 146.52 42.8818L147.487 31.0746C147.54 30.3697 148.346 29.841 149.313 29.841ZM155.113 26.199C155.597 25.2591 156.402 24.7892 157.047 25.0241L166.822 30.0172C167.735 30.6046 167.896 32.2494 167.09 33.718C166.285 35.1865 164.942 35.8914 164.029 35.304L155.167 28.5487C154.684 28.1375 154.63 27.0801 155.113 26.199ZM143.458 26.199C143.942 27.0801 143.888 28.1375 143.405 28.6074L134.543 35.3628C133.63 35.9502 132.233 35.2453 131.481 33.7767C130.676 32.3082 130.837 30.6634 131.75 30.076L141.579 25.0829C142.169 24.7892 143.029 25.2591 143.458 26.199ZM168.916 34.3054H169.024C169.131 34.3054 169.239 34.2467 169.239 34.1879C169.239 34.0704 169.185 34.0704 169.078 34.0704H168.97V34.3054H168.916ZM168.916 34.8341H168.702V33.8942H169.024C169.185 33.8942 169.239 33.8942 169.346 33.9529C169.4 34.0117 169.454 34.0704 169.454 34.1292C169.454 34.2467 169.4 34.3054 169.292 34.3641C169.4 34.4229 169.454 34.4816 169.454 34.5991C169.454 34.7753 169.507 34.7753 169.507 34.8341H169.292C169.239 34.7753 169.239 34.7166 169.239 34.5991C169.239 34.4816 169.185 34.4816 169.078 34.4816H168.97L168.916 34.8341ZM169.024 33.6005C168.648 33.6005 168.379 33.9529 168.379 34.3641C168.379 34.7753 168.648 35.1278 169.024 35.1278C169.4 35.1278 169.668 34.7753 169.668 34.3641C169.722 33.9529 169.4 33.6005 169.024 33.6005ZM169.024 33.4243C169.507 33.4243 169.883 33.8355 169.883 34.3641C169.883 34.8928 169.507 35.304 169.024 35.304C168.541 35.304 168.111 34.8928 168.111 34.3641C168.165 33.8355 168.541 33.4243 169.024 33.4243Z" fill="white"/>
</svg>
